<svg xmlns="http://www.w3.org/2000/svg" width="256" height="256" viewBox="0 0 100 100"><path fill="#3d3d3d" d="M1.85 76.21L1.85 23.79L18.73 23.79Q27.20 23.79 33.42 26.94Q39.65 30.09 42.99 35.94Q46.33 41.79 46.33 49.74L46.33 49.74Q46.33 62.79 38.79 69.50Q31.25 76.21 17.68 76.21L17.68 76.21L1.85 76.21ZM9.50 69.84L17.60 69.84Q28.10 69.84 33.35 64.66Q38.60 59.49 38.60 49.74L38.60 49.74Q38.60 40.74 33.46 35.49Q28.32 30.24 18.80 30.24L18.80 30.24L9.50 30.24L9.50 69.84ZM78.95 77.34Q70.85 77.34 64.55 73.96Q58.25 70.59 54.73 64.40Q51.20 58.21 51.20 50.04L51.20 50.04Q51.20 41.86 54.73 35.64Q58.25 29.41 64.55 26.04Q70.85 22.66 78.95 22.66L78.95 22.66Q89.83 22.66 97.03 28.06L97.03 28.06L97.03 35.41Q90.50 29.71 79.63 29.71L79.63 29.71Q73.70 29.71 68.97 32.19Q64.25 34.66 61.59 39.28Q58.93 43.89 58.93 50.04L58.93 50.04Q58.93 56.19 61.55 60.84Q64.17 65.49 68.83 67.96Q73.47 70.44 79.33 70.44L79.33 70.44Q86.15 70.44 90.50 67.66L90.50 67.66L90.50 53.94L80.53 53.94L80.53 47.71L98.15 47.71L98.15 71.71Q94.63 74.64 89.86 75.99Q85.10 77.34 78.95 77.34L78.95 77.34Z"></path></svg>